<svg xmlns="http://www.w3.org/2000/svg" viewBox="0 0 256 256" width="256" height="256" role="img" aria-label="Offline image">
  <defs>
    <linearGradient id="g" x1="0" y1="0" x2="1" y2="1">
      <stop offset="0%" stop-color="#9ca3af"/>
      <stop offset="100%" stop-color="#6b7280"/>
    </linearGradient>
  </defs>
  <rect width="256" height="256" rx="24" fill="#111827"/>
  <g fill="none" stroke="url(#g)" stroke-width="12" stroke-linecap="round" stroke-linejoin="round">
    <path d="M176 160H88a40 40 0 1 1 11.7-78.3A56 56 0 0 1 200 112c0 1.9-.1 3.7-.3 5.6M48 208l160-160"/>
    <path d="M80 192h96a32 32 0 0 0 0-64"/>
  </g>
  <text x="50%" y="226" text-anchor="middle" font-family="Inter, system-ui, -apple-system, Segoe UI, Roboto, Helvetica, Arial" font-size="16" fill="#d1d5db">Offline</text>
</svg>
<svg xmlns="http://www.w3.org/2000/svg" width="128" height="128" viewBox="0 0 24 24" fill="none" stroke="#9ca3af" stroke-width="1.5" stroke-linecap="round" stroke-linejoin="round">
  <path d="M16 17l-4-4-4 4"/>
  <path d="M12 13V3"/>
  <path d="M20.39 18.39A9 9 0 1 0 5.61 3.61"/>
</svg>


